<svg xmlns="http://www.w3.org/2000/svg" viewBox="0 0 450 259.81"><defs><style>.cls-1{fill:#5e97f6;}.cls-2{fill:#2a56c6;}.cls-3{fill:#00796b;}.cls-4{fill:#3367d6;}.cls-5{fill:#26a69a;}.cls-6{fill:#9c27b0;}.cls-7{fill:#6a1b9a;}.cls-8{fill:#00695c;}.cls-9{fill:#ea80fc;}</style></defs><title>JAX Nostroke</title><g id="Layer_2" data-name="Layer 2"><g id="Layer_1-2" data-name="Layer 1"><polygon class="cls-1" points="50 129.9 25 173.21 75 173.21 100 129.9 50 129.9"/><polygon class="cls-1" points="0 216.51 25 173.21 75 173.21 50 216.51 0 216.51"/><polygon class="cls-1" points="125 173.21 75 173.21 50 216.51 100 216.51 125 173.21"/><polygon class="cls-1" points="175 173.21 125 173.21 100 216.51 150 216.51 175 173.21"/><polygon class="cls-1" points="150 129.9 125 173.21 175 173.21 200 129.9 150 129.9"/><polygon class="cls-1" points="175 86.6 150 129.9 200 129.9 225 86.6 175 86.6"/><polygon class="cls-1" points="200 43.3 175 86.6 225 86.6 250 43.3 200 43.3"/><polygon class="cls-1" points="225 0 200 43.3 250 43.3 275 0 225 0"/><polygon class="cls-2" points="0 216.51 25 259.81 75 259.81 50 216.51 0 216.51"/><polygon class="cls-2" points="125 259.81 75 259.81 50 216.51 100 216.51 125 259.81"/><polygon class="cls-2" points="175 259.81 125 259.81 100 216.51 150 216.51 175 259.81"/><polygon class="cls-3" points="200 216.51 175 173.21 150 216.51 175 259.81 200 216.51"/><polygon class="cls-3" points="250 129.9 225 86.6 200 129.9 250 129.9"/><polygon class="cls-3" points="250 43.3 225 86.6 250 129.9 275 86.6 250 43.3"/><polygon class="cls-4" points="125 173.21 100 129.9 75 173.21 125 173.21"/><polygon class="cls-5" points="250 129.9 200 129.9 175 173.21 225 173.21 250 129.9"/><polygon class="cls-5" points="300 129.9 250 129.9 225 173.21 275 173.21 300 129.9"/><polygon class="cls-6" points="350 43.3 325 0 300 43.3 325 86.6 350 43.3"/><polygon class="cls-6" points="375 86.6 350 43.3 325 86.6 350 129.9 375 86.6"/><polygon class="cls-6" points="400 129.9 375 86.6 350 129.9 375 173.21 400 129.9"/><polygon class="cls-6" points="425 173.21 400 129.9 375 173.21 400 216.51 425 173.21"/><polygon class="cls-6" points="450 216.51 425 173.21 400 216.51 425 259.81 450 216.51"/><polygon class="cls-6" points="425 0 400 43.3 425 86.6 450 43.3 425 0"/><polygon class="cls-6" points="375 86.6 400 43.3 425 86.6 400 129.9 375 86.6"/><polygon class="cls-6" points="350 129.9 325 173.21 350 216.51 375 173.21 350 129.9"/><polygon class="cls-6" points="325 259.81 300 216.51 325 173.21 350 216.51 325 259.81"/><polygon class="cls-7" points="275 259.81 250 216.51 300 216.51 325 259.81 275 259.81"/><polygon class="cls-8" points="225 173.21 175 173.21 200 216.51 250 216.51 225 173.21"/><polygon class="cls-8" points="275 173.21 225 173.21 250 216.51 275 173.21"/><polygon class="cls-8" points="275 86.6 300 129.9 350 129.9 325 86.6 275 86.6"/><polygon class="cls-8" points="300 43.3 250 43.3 275 86.6 325 86.6 300 43.3"/><polygon class="cls-8" points="425 259.81 400 216.51 350 216.51 375 259.81 425 259.81"/><polygon class="cls-8" points="375 173.21 350 216.51 400 216.51 375 173.21"/><polygon class="cls-9" points="325 0 275 0 250 43.3 300 43.3 325 0"/><polygon class="cls-9" points="325 173.21 275 173.21 250 216.51 300 216.51 325 173.21"/><polygon class="cls-9" points="350 129.9 300 129.9 275 173.21 325 173.21 350 129.9"/><polygon class="cls-9" points="425 0 375 0 350 43.3 400 43.3 425 0"/><polygon class="cls-9" points="375 86.6 350 43.3 400 43.3 375 86.6"/></g></g></svg>